<svg width="512" height="512" viewBox="0 0 512 512" fill="none" xmlns="http://www.w3.org/2000/svg">
<rect width="512" height="512" rx="96" fill="#35363F"/>
<rect x="99" y="201" width="100" height="100" fill="#D9D9D9"/>
<circle cx="256.266" cy="256.266" r="214.266" fill="white"/>
<path d="M306.009 276.78C306.921 279.658 307.637 282.649 308.155 285.753C308.238 289.029 308.087 292.359 307.7 295.743C306.819 299.168 305.683 302.577 304.292 305.971C302.386 309.257 300.227 312.451 297.813 315.554C294.91 318.395 291.776 321.069 288.411 323.574C284.626 325.673 280.657 327.534 276.502 329.159C272.04 330.25 267.458 331.049 262.758 331.555C257.898 331.434 253.001 330.984 248.068 330.204C243.15 328.746 238.288 326.945 233.48 324.801C228.88 321.978 224.431 318.824 220.133 315.341C216.231 311.23 212.574 306.829 209.16 302.138C206.319 296.925 203.803 291.487 201.612 285.824C200.139 279.795 199.055 273.628 198.358 267.324C198.482 260.848 199.033 254.34 200.011 247.8C201.859 241.309 204.143 234.902 206.864 228.579C210.443 222.541 214.437 216.703 218.844 211.067C224.035 205.947 229.586 201.139 235.498 196.644C242.054 192.875 248.887 189.514 255.997 186.562C263.557 184.507 271.285 182.934 279.18 181.843C287.286 181.767 295.431 182.216 303.616 183.191C311.741 185.234 319.767 187.812 327.693 190.924C335.277 195.086 342.621 199.753 349.724 204.926C356.21 211.054 362.323 217.623 368.063 224.632C372.939 232.43 377.327 240.567 381.229 249.045C384.063 258.079 386.325 267.324 388.013 276.78C388.494 286.51 388.351 296.299 387.583 306.147C385.545 315.952 382.871 325.652 379.561 335.249C375.001 344.471 369.838 353.423 364.07 362.106C357.16 370.093 349.721 377.654 341.754 384.792C332.834 390.941 323.5 396.532 313.752 401.565C303.317 405.371 292.617 408.517 281.651 411.002C270.323 412.093 258.904 412.461 247.392 412.107C235.882 410.279 224.469 407.711 213.152 404.404C202.218 399.638 191.57 394.166 181.209 387.986C171.604 380.463 162.464 372.315 153.79 363.542C146.21 353.634 139.252 343.229 132.915 332.326C127.952 320.583 123.732 308.509 120.254 296.102C118.35 283.221 117.266 270.202 117 257.046C118.411 243.826 120.666 230.681 123.765 217.612C128.536 204.909 134.122 192.498 140.521 180.378C148.476 169.05 157.16 158.218 166.573 147.882C177.318 138.726 188.654 130.247 200.582 122.444C213.522 116.148 226.871 110.67 240.631 106.01C255.002 103.095 269.568 101.091 284.329 100C299.246 100.785 314.122 102.518 328.957 105.2C343.465 109.771 357.691 115.266 371.633 121.686C384.771 129.882 397.394 138.917 409.502 148.79C420.364 160.209 430.505 172.321 439.924 185.126C447.723 199.136 454.634 213.644 460.657 228.651C464.778 244.429 467.898 260.472 470.017 276.78" stroke="#35363F" stroke-width="30"/>
<rect x="483.837" y="268" width="86.6587" height="30" transform="rotate(84.0234 483.837 268)" fill="#35363F"/>
<mask id="path-6-outside-1_0_1" maskUnits="userSpaceOnUse" x="104" y="60" width="315" height="392" fill="black">
<rect fill="white" x="104" y="60" width="315" height="392"/>
<path d="M144.088 412V100.34H267.047C290.685 100.34 310.824 104.855 327.462 113.884C344.1 122.812 356.781 135.24 365.506 151.168C374.332 166.994 378.745 185.255 378.745 205.952C378.745 226.648 374.282 244.909 365.354 260.735C356.426 276.562 343.491 288.888 326.549 297.715C309.708 306.541 289.316 310.954 265.373 310.954H187.002V258.148H254.721C267.402 258.148 277.852 255.967 286.069 251.605C294.388 247.141 300.577 241.003 304.635 233.191C308.794 225.278 310.874 216.198 310.874 205.952C310.874 195.603 308.794 186.574 304.635 178.864C300.577 171.052 294.388 165.016 286.069 160.755C277.75 156.392 267.199 154.211 254.416 154.211H209.981V412H144.088Z"/>
</mask>
<path d="M144.088 412V100.34H267.047C290.685 100.34 310.824 104.855 327.462 113.884C344.1 122.812 356.781 135.24 365.506 151.168C374.332 166.994 378.745 185.255 378.745 205.952C378.745 226.648 374.282 244.909 365.354 260.735C356.426 276.562 343.491 288.888 326.549 297.715C309.708 306.541 289.316 310.954 265.373 310.954H187.002V258.148H254.721C267.402 258.148 277.852 255.967 286.069 251.605C294.388 247.141 300.577 241.003 304.635 233.191C308.794 225.278 310.874 216.198 310.874 205.952C310.874 195.603 308.794 186.574 304.635 178.864C300.577 171.052 294.388 165.016 286.069 160.755C277.75 156.392 267.199 154.211 254.416 154.211H209.981V412H144.088Z" fill="white"/>
<path d="M144.088 412H104.088V452H144.088V412ZM144.088 100.34V60.3403H104.088V100.34H144.088ZM327.462 113.884L308.383 149.041L308.466 149.086L308.549 149.13L327.462 113.884ZM365.506 151.168L330.424 170.384L330.497 170.518L330.571 170.65L365.506 151.168ZM326.549 297.715L308.068 262.24L308.024 262.263L307.98 262.286L326.549 297.715ZM187.002 310.954H147.002V350.954H187.002V310.954ZM187.002 258.148V218.148H147.002V258.148H187.002ZM286.069 251.605L304.825 286.935L304.904 286.893L304.982 286.851L286.069 251.605ZM304.635 233.191L269.228 214.58L269.183 214.666L269.139 214.752L304.635 233.191ZM304.635 178.864L269.139 197.303L269.283 197.581L269.431 197.856L304.635 178.864ZM286.069 160.755L267.493 196.18L267.663 196.269L267.834 196.357L286.069 160.755ZM209.981 154.211V114.211H169.981V154.211H209.981ZM209.981 412V452H249.981V412H209.981ZM144.088 412H184.088V100.34H144.088H104.088V412H144.088ZM144.088 100.34V140.34H267.047V100.34V60.3403H144.088V100.34ZM267.047 100.34V140.34C285.651 140.34 298.884 143.886 308.383 149.041L327.462 113.884L346.541 78.7274C322.763 65.8239 295.719 60.3403 267.047 60.3403V100.34ZM327.462 113.884L308.549 149.13C318.644 154.548 325.576 161.532 330.424 170.384L365.506 151.168L400.588 131.951C387.987 108.947 369.555 91.0761 346.374 78.6377L327.462 113.884ZM365.506 151.168L330.571 170.65C335.629 179.718 338.745 191.094 338.745 205.952H378.745H418.745C418.745 179.417 413.036 154.27 400.441 131.685L365.506 151.168ZM378.745 205.952H338.745C338.745 220.733 335.612 232.046 330.515 241.083L365.354 260.735L400.193 280.388C412.951 257.772 418.745 232.562 418.745 205.952H378.745ZM365.354 260.735L330.515 241.083C325.593 249.807 318.511 256.799 308.068 262.24L326.549 297.715L345.029 333.189C368.471 320.977 387.259 303.317 400.193 280.388L365.354 260.735ZM326.549 297.715L307.98 262.286C298.163 267.431 284.488 270.954 265.373 270.954V310.954V350.954C294.144 350.954 321.252 345.651 345.117 333.144L326.549 297.715ZM265.373 310.954V270.954H187.002V310.954V350.954H265.373V310.954ZM187.002 310.954H227.002V258.148H187.002H147.002V310.954H187.002ZM187.002 258.148V298.148H254.721V258.148V218.148H187.002V258.148ZM254.721 258.148V298.148C271.68 298.148 289.118 295.273 304.825 286.935L286.069 251.605L267.314 216.275C266.585 216.661 263.125 218.148 254.721 218.148V258.148ZM286.069 251.605L304.982 286.851C319.853 278.871 332.089 267.112 340.131 251.631L304.635 233.191L269.139 214.752C269.002 215.015 268.903 215.134 268.782 215.253C268.645 215.39 268.198 215.799 267.157 216.358L286.069 251.605ZM304.635 233.191L340.042 251.802C347.633 237.36 350.874 221.728 350.874 205.952H310.874H270.874C270.874 210.669 269.956 213.196 269.228 214.58L304.635 233.191ZM310.874 205.952H350.874C350.874 190.175 347.671 174.391 339.839 159.872L304.635 178.864L269.431 197.856C269.918 198.757 270.874 201.032 270.874 205.952H310.874ZM304.635 178.864L340.131 160.424C331.999 144.769 319.536 132.955 304.304 125.153L286.069 160.755L267.834 196.357C268.72 196.81 269.014 197.106 269.02 197.112C269.037 197.128 269.037 197.13 269.037 197.13C269.038 197.131 269.074 197.179 269.139 197.303L304.635 178.864ZM286.069 160.755L304.646 125.33C288.906 117.076 271.446 114.211 254.416 114.211V154.211V194.211C262.952 194.211 266.595 195.709 267.493 196.18L286.069 160.755ZM254.416 154.211V114.211H209.981V154.211V194.211H254.416V154.211ZM209.981 154.211H169.981V412H209.981H249.981V154.211H209.981ZM209.981 412V372H144.088V412V452H209.981V412Z" fill="#35363F" mask="url(#path-6-outside-1_0_1)"/>
<rect x="236" y="188" width="42" height="38" fill="#35363F"/>
</svg>
